<?xml version="1.0" encoding="UTF-8" standalone="no"?>
<!-- Created with Inkscape (http://www.inkscape.org/) -->

<svg
   width="118.01148mm"
   height="144.20479mm"
   viewBox="0 0 118.01148 144.20479"
   version="1.1"
   id="svg5"
   inkscape:export-filename="OP4.png"
   inkscape:export-xdpi="96"
   inkscape:export-ydpi="96"
   inkscape:version="1.2.2 (b0a8486541, 2022-12-01)"
   sodipodi:docname="logo.svg"
   xmlns:inkscape="http://www.inkscape.org/namespaces/inkscape"
   xmlns:sodipodi="http://sodipodi.sourceforge.net/DTD/sodipodi-0.dtd"
   xmlns="http://www.w3.org/2000/svg"
   xmlns:svg="http://www.w3.org/2000/svg">
  <sodipodi:namedview
     id="namedview7"
     pagecolor="#ffffff"
     bordercolor="#000000"
     borderopacity="0.25"
     inkscape:showpageshadow="2"
     inkscape:pageopacity="0.0"
     inkscape:pagecheckerboard="0"
     inkscape:deskcolor="#d1d1d1"
     inkscape:document-units="mm"
     showgrid="false"
     inkscape:zoom="0.82020916"
     inkscape:cx="135.33133"
     inkscape:cy="466.95406"
     inkscape:window-width="2503"
     inkscape:window-height="1397"
     inkscape:window-x="793"
     inkscape:window-y="430"
     inkscape:window-maximized="0"
     inkscape:current-layer="layer1" />
  <defs
     id="defs2" />
  <g
     inkscape:label="Layer 1"
     inkscape:groupmode="layer"
     id="layer1"
     transform="translate(-73.207093,-27.725369)">
    <path
       style="color:#000000;font-size:154.668px;display:none;fill:#000000;fill-opacity:0;stroke:#000000;stroke-width:9;stroke-linecap:round;stroke-linejoin:miter;stroke-dasharray:none;stroke-opacity:1;paint-order:normal"
       d="m 239.96785,85.275233 c 2.38878,-5.806042 3.57422,-12.088372 3.57422,-18.749962 0,-8.629309 -1.55379,-16.019871 -4.87774,-22.039414 -3.17697,-5.866192 -7.73634,-10.79486 -13.52609,-14.677408 l -0.005,-0.0025 -0.003,-0.0025 C 220.22006,26.529992 214.61495,24.16211 208.3957,22.686907 177.85961,19.920222 175.44136,21.544215 176.3306,21.544215 l 2.2e-4,73.505574 2.2e-4,73.505571"
       id="path1800"
       sodipodi:nodetypes="cscccccccc"
       inkscape:label="path1800" />
    <g
       aria-label="OP"
       id="text15115"
       style="font-size:154.668px;fill:#9d9d9d;fill-opacity:0.0294118;stroke:#70d287;stroke-width:6.35;stroke-linejoin:round">
      <path
         d="m 73.207093,54.637601 q 0,-6.650724 2.32002,-11.754768 2.32002,-5.104044 6.18672,-8.50674 3.712032,-3.248028 8.352072,-4.949376 4.794708,-1.701348 9.589416,-1.701348 4.794709,0 9.434749,1.701348 4.79471,1.701348 8.66141,4.949376 3.71203,3.402696 6.03205,8.50674 2.32002,5.104044 2.32002,11.754768 v 58.155169 q 0,6.96006 -2.32002,11.90943 -2.32002,4.94938 -6.03205,8.19741 -3.8667,3.40269 -8.66141,5.10404 -4.64004,1.70135 -9.434749,1.70135 -4.794708,0 -9.589416,-1.70135 -4.64004,-1.70135 -8.352072,-5.10404 -3.8667,-3.24803 -6.18672,-8.19741 -2.32002,-4.94937 -2.32002,-11.90943 z m 15.776136,58.155169 q 0,5.72271 3.09336,8.50674 3.248028,2.62935 7.578732,2.62935 4.330699,0 7.424059,-2.62935 3.24803,-2.78403 3.24803,-8.50674 V 54.637601 q 0,-5.722716 -3.24803,-8.352072 -3.09336,-2.784024 -7.424059,-2.784024 -4.330704,0 -7.578732,2.784024 -3.09336,2.629356 -3.09336,8.352072 z"
         style="-inkscape-font-specification:'DIN Condensed, ';fill:#000000;fill-opacity:1;stroke:none"
         id="path400" />
      <path
         d="M 140.02376,138.77699 V 28.653377 h 23.6642 q 6.49606,0 11.44543,1.701348 4.94938,1.701348 8.97075,6.032052 4.02137,4.330704 5.56805,10.208088 1.54668,5.722716 1.54668,15.621468 0,7.424064 -0.92801,12.528108 -0.77334,5.104044 -3.55737,9.589416 -3.24802,5.41338 -8.6614,8.50674 -5.41338,2.938692 -14.22946,2.938692 h -8.04274 v 42.997701 z m 15.77613,-95.275485 v 37.429656 h 7.57874 q 4.7947,0 7.42406,-1.392012 2.62936,-1.392012 3.8667,-3.8667 1.23734,-2.32002 1.39201,-5.722716 0.30934,-3.402696 0.30934,-7.578732 0,-3.8667 -0.15467,-7.269396 -0.15467,-3.557364 -1.39201,-6.18672 -1.23735,-2.629356 -3.71203,-4.021368 -2.47469,-1.392012 -7.11473,-1.392012 z"
         style="-inkscape-font-specification:'DIN Condensed, ';fill:#000000;fill-opacity:1;stroke:none"
         id="path402" />
    </g>
    <path
       style="fill:none;fill-opacity:1;stroke:#70d287;stroke-width:15.7213;stroke-linejoin:round;stroke-dasharray:none;stroke-opacity:1"
       d="m 110.29608,81.548369 c 0,0 37.38146,0.177459 37.5901,-52.92486"
       id="path15995"
       sodipodi:nodetypes="cc" />
    <circle
       style="fill:#70d287;fill-opacity:1;stroke:none;stroke-width:4.40323;stroke-linejoin:round;stroke-dasharray:none;stroke-opacity:1"
       id="path16914"
       cx="99.879967"
       cy="35.926937"
       r="3.9687495" />
    <circle
       style="fill:#70d287;fill-opacity:1;stroke:none;stroke-width:4.40323;stroke-linejoin:round;stroke-dasharray:none;stroke-opacity:1"
       id="path16914-3"
       cx="147.90039"
       cy="131.38319"
       r="3.9687495" />
    <circle
       style="fill:#70d287;fill-opacity:1;stroke:none;stroke-width:4.40323;stroke-linejoin:round;stroke-dasharray:none;stroke-opacity:1"
       id="path16914-08"
       cx="99.818604"
       cy="131.38319"
       r="3.9687495" />
    <circle
       style="fill:#000004;fill-opacity:1;stroke:none;stroke-width:4.40323;stroke-linejoin:round;stroke-dasharray:none;stroke-opacity:1"
       id="path16914-08-7"
       cx="117.9662"
       cy="79.998024"
       r="3.9687495" />
    <circle
       style="fill:#000004;fill-opacity:1;stroke:none;stroke-width:4.40323;stroke-linejoin:round;stroke-dasharray:none;stroke-opacity:1"
       id="path16914-08-7-8"
       cx="147.5262"
       cy="36.032192"
       r="3.9687495" />
    <g
       aria-label="OpenPipeline"
       id="text18043"
       style="font-size:29.5518px;font-family:'DIN Condensed';-inkscape-font-specification:'DIN Condensed, ';fill:#000004;stroke-width:2.60805;stroke-linejoin:round">
      <path
         d="m 73.499705,149.79586 q 0,-1.27073 0.443277,-2.24594 0.443277,-0.97521 1.182072,-1.62535 0.709243,-0.62058 1.595797,-0.94565 0.916106,-0.32507 1.832212,-0.32507 0.916106,0 1.80266,0.32507 0.916106,0.32507 1.654901,0.94565 0.709243,0.65014 1.15252,1.62535 0.443277,0.97521 0.443277,2.24594 v 11.11148 q 0,1.32983 -0.443277,2.27549 -0.443277,0.94565 -1.15252,1.56624 -0.738795,0.65014 -1.654901,0.97521 -0.886554,0.32507 -1.80266,0.32507 -0.916106,0 -1.832212,-0.32507 -0.886554,-0.32507 -1.595797,-0.97521 -0.738795,-0.62059 -1.182072,-1.56624 -0.443277,-0.94566 -0.443277,-2.27549 z m 3.014284,11.11148 q 0,1.09341 0.591036,1.62535 0.620588,0.50238 1.448038,0.50238 0.82745,0 1.418486,-0.50238 0.620588,-0.53194 0.620588,-1.62535 v -11.11148 q 0,-1.09342 -0.620588,-1.5958 -0.591036,-0.53193 -1.418486,-0.53193 -0.82745,0 -1.448038,0.53193 -0.591036,0.50238 -0.591036,1.5958 z"
         id="path456" />
      <path
         d="m 86.08879,171.93016 v -21.04088 h 3.014283 v 1.35938 q 0.561485,-0.65014 1.152521,-1.09342 0.591036,-0.44327 1.714004,-0.44327 1.861763,0 2.63011,1.41848 0.265966,0.50238 0.384174,1.24118 0.118207,0.73879 0.118207,1.97997 v 5.7035 q 0,1.6549 -0.08866,2.39369 -0.17731,1.47759 -1.359382,2.21639 -0.591036,0.38417 -1.714005,0.38417 -0.886554,0 -1.595797,-0.38417 -0.679691,-0.41373 -1.182072,-1.15252 h -0.0591 v 7.4175 z m 5.999015,-16.16484 q 0,-0.9161 -0.354621,-1.47759 -0.354622,-0.56148 -1.122969,-0.56148 -0.679691,0 -1.093416,0.53193 -0.413726,0.50238 -0.413726,1.32983 v 5.82171 q 0,0.70924 0.413726,1.18207 0.443277,0.44328 1.093416,0.44328 0.857002,0 1.15252,-0.53194 0.32507,-0.53193 0.32507,-1.24117 z"
         id="path458" />
      <path
         d="m 106.30222,159.5184 h -5.96947 v 2.03908 q 0,0.70924 0.38418,1.09341 0.41372,0.38418 1.09341,0.38418 0.85701,0 1.12297,-0.50238 0.29552,-0.50238 0.35462,-1.00476 h 3.01429 q 0,1.97997 -1.21163,3.19159 -0.59103,0.62059 -1.41848,0.97521 -0.82745,0.35462 -1.86177,0.35462 -1.41848,0 -2.423243,-0.59104 -0.975209,-0.59103 -1.507142,-1.56624 -0.325069,-0.59104 -0.443277,-1.35938 -0.118207,-0.76835 -0.118207,-1.68446 v -4.93515 q 0,-0.9161 0.118207,-1.68445 0.118208,-0.76835 0.443277,-1.35938 0.531933,-0.97521 1.507142,-1.56625 1.004763,-0.59103 2.423243,-0.59103 1.03432,0 1.86177,0.35462 0.857,0.35462 1.44804,0.97521 1.18207,1.32983 1.18207,3.33935 z m -5.96947,-2.36414 h 2.95518 v -1.71401 q 0,-0.857 -0.41372,-1.27072 -0.38417,-0.44328 -1.06387,-0.44328 -0.67969,0 -1.09341,0.44328 -0.38418,0.41372 -0.38418,1.27072 z"
         id="path460" />
      <path
         d="m 108.51863,165.87204 v -14.98276 h 3.01428 v 1.44804 h 0.0591 q 0.47283,-0.70925 1.12297,-1.15252 0.67969,-0.47283 1.714,-0.47283 0.56148,0 1.12297,0.20686 0.56148,0.17731 1.00476,0.62059 0.44328,0.44327 0.70924,1.15252 0.26597,0.67969 0.26597,1.68445 v 11.49565 h -3.01428 v -10.37268 q 0,-0.82745 -0.38418,-1.30028 -0.38417,-0.47283 -1.09341,-0.47283 -0.85701,0 -1.18208,0.53193 -0.32507,0.53193 -0.32507,1.5367 v 10.07716 z"
         id="path462" />
      <path
         d="m 120.19159,165.87204 v -21.04088 h 4.52142 q 1.24118,0 2.18684,0.32507 0.94565,0.32507 1.714,1.15252 0.76835,0.82745 1.06387,1.95042 0.29551,1.09341 0.29551,2.98473 0,1.41849 -0.17731,2.39369 -0.14776,0.97521 -0.67969,1.83222 -0.62059,1.03431 -1.6549,1.62535 -1.03431,0.56148 -2.71876,0.56148 h -1.5367 v 8.2154 z m 3.01428,-18.20391 v 7.15154 h 1.44804 q 0.91611,0 1.41849,-0.26597 0.50238,-0.26597 0.73879,-0.73879 0.23642,-0.44328 0.26597,-1.09342 0.0591,-0.65014 0.0591,-1.44804 0,-0.73879 -0.0295,-1.38893 -0.0296,-0.6797 -0.26597,-1.18208 -0.23641,-0.50238 -0.70924,-0.76834 -0.47283,-0.26597 -1.35938,-0.26597 z"
         id="path464" />
      <path
         d="m 132.04185,165.87204 v -14.98276 h 3.01428 v 14.98276 z m 0,-18.0266 v -3.01428 h 3.01428 v 3.01428 z"
         id="path466" />
      <path
         d="m 137.53851,171.93016 v -21.04088 h 3.01428 v 1.35938 q 0.56149,-0.65014 1.15252,-1.09342 0.59104,-0.44327 1.71401,-0.44327 1.86176,0 2.63011,1.41848 0.26596,0.50238 0.38417,1.24118 0.11821,0.73879 0.11821,1.97997 v 5.7035 q 0,1.6549 -0.0887,2.39369 -0.17731,1.47759 -1.35938,2.21639 -0.59104,0.38417 -1.71401,0.38417 -0.88655,0 -1.59579,-0.38417 -0.67969,-0.41373 -1.18207,-1.15252 h -0.0591 v 7.4175 z m 5.99901,-16.16484 q 0,-0.9161 -0.35462,-1.47759 -0.35462,-0.56148 -1.12297,-0.56148 -0.67969,0 -1.09341,0.53193 -0.41373,0.50238 -0.41373,1.32983 v 5.82171 q 0,0.70924 0.41373,1.18207 0.44327,0.44328 1.09341,0.44328 0.85701,0 1.15252,-0.53194 0.32507,-0.53193 0.32507,-1.24117 z"
         id="path468" />
      <path
         d="m 157.75194,159.5184 h -5.96946 v 2.03908 q 0,0.70924 0.38417,1.09341 0.41373,0.38418 1.09342,0.38418 0.857,0 1.12297,-0.50238 0.29551,-0.50238 0.35462,-1.00476 h 3.01428 q 0,1.97997 -1.21162,3.19159 -0.59104,0.62059 -1.41849,0.97521 -0.82745,0.35462 -1.86176,0.35462 -1.41849,0 -2.42325,-0.59104 -0.97521,-0.59103 -1.50714,-1.56624 -0.32507,-0.59104 -0.44328,-1.35938 -0.11821,-0.76835 -0.11821,-1.68446 v -4.93515 q 0,-0.9161 0.11821,-1.68445 0.11821,-0.76835 0.44328,-1.35938 0.53193,-0.97521 1.50714,-1.56625 1.00476,-0.59103 2.42325,-0.59103 1.03431,0 1.86176,0.35462 0.857,0.35462 1.44804,0.97521 1.18207,1.32983 1.18207,3.33935 z m -5.96946,-2.36414 h 2.95518 v -1.71401 q 0,-0.857 -0.41373,-1.27072 -0.38417,-0.44328 -1.06386,-0.44328 -0.67969,0 -1.09342,0.44328 -0.38417,0.41372 -0.38417,1.27072 z"
         id="path470" />
      <path
         d="m 159.79104,144.83116 h 3.01428 v 16.81497 q 0,0.857 0.29552,1.18207 0.32507,0.29552 1.18207,0.38418 v 2.83697 q -1.03431,0 -1.86176,-0.17731 -0.82745,-0.14776 -1.41849,-0.62059 -0.59103,-0.44327 -0.9161,-1.24117 -0.29552,-0.82745 -0.29552,-2.15728 z"
         id="path472" />
      <path
         d="m 165.46501,165.87204 v -14.98276 h 3.01428 v 14.98276 z m 0,-18.0266 v -3.01428 h 3.01428 v 3.01428 z"
         id="path474" />
      <path
         d="m 170.96167,165.87204 v -14.98276 h 3.01428 v 1.44804 h 0.0591 q 0.47283,-0.70925 1.12297,-1.15252 0.67969,-0.47283 1.71401,-0.47283 0.56148,0 1.12296,0.20686 0.56149,0.17731 1.00476,0.62059 0.44328,0.44327 0.70925,1.15252 0.26596,0.67969 0.26596,1.68445 v 11.49565 h -3.01428 v -10.37268 q 0,-0.82745 -0.38417,-1.30028 -0.38418,-0.47283 -1.09342,-0.47283 -0.857,0 -1.18207,0.53193 -0.32507,0.53193 -0.32507,1.5367 v 10.07716 z"
         id="path476" />
      <path
         d="m 191.1751,159.5184 h -5.96947 v 2.03908 q 0,0.70924 0.38418,1.09341 0.41372,0.38418 1.09341,0.38418 0.85701,0 1.12297,-0.50238 0.29552,-0.50238 0.35462,-1.00476 h 3.01429 q 0,1.97997 -1.21163,3.19159 -0.59103,0.62059 -1.41848,0.97521 -0.82745,0.35462 -1.86177,0.35462 -1.41848,0 -2.42324,-0.59104 -0.97521,-0.59103 -1.50715,-1.56624 -0.32507,-0.59104 -0.44327,-1.35938 -0.11821,-0.76835 -0.11821,-1.68446 v -4.93515 q 0,-0.9161 0.11821,-1.68445 0.1182,-0.76835 0.44327,-1.35938 0.53194,-0.97521 1.50715,-1.56625 1.00476,-0.59103 2.42324,-0.59103 1.03432,0 1.86177,0.35462 0.857,0.35462 1.44804,0.97521 1.18207,1.32983 1.18207,3.33935 z m -5.96947,-2.36414 h 2.95518 v -1.71401 q 0,-0.857 -0.41372,-1.27072 -0.38417,-0.44328 -1.06387,-0.44328 -0.67969,0 -1.09341,0.44328 -0.38418,0.41372 -0.38418,1.27072 z"
         id="path478" />
    </g>
  </g>
</svg>
